[Header]
FileType HTR
DataType HTRS
FileVersion 1
NumSegments 22
NumFrames 7
DataFrameRate 24
EulerRotationOrder ZYX
CalibrationUnits mm
RotationUnits Degrees
GlobalAxisofGravity Y
BoneLengthAxis Y
ScaleFactor 1.0
[SegmentNames&Hierarchy]
reference	GLOBAL
Hips	reference
Spine	Hips
Spine1	Spine
Neck	Spine1
Head	Neck
LeftShoulder	Spine1
LeftArm	LeftShoulder
LeftForeArm	LeftArm
LeftHand	LeftForeArm
RightShoulder	Spine1
RightArm	RightShoulder
RightForeArm	RightArm
RightHand	RightForeArm
LeftUpLeg	Hips
LeftLeg	LeftUpLeg
LeftFoot	LeftLeg
LeftToeBase	LeftFoot
RightUpLeg	Hips
RightLeg	RightUpLeg
RightFoot	RightLeg
RightToeBase	RightFoot
[BasePosition]
reference	0	0	0	0	0	0	1
Hips	0	0	0	0	0	0	1
Spine	0	0	0	0	-0	90	1
Spine1	0	0	0	0	0	0	1
Neck	0	0	0	-7.352430803	-7.352430803	90	1
Head	0	0	0	0	-0	90	1
LeftShoulder	0	0	0	0	0	0	1
LeftArm	0	0	0	0	0	0	1
LeftForeArm	0	0	0	0	0	0	1
LeftHand	0	0	0	0	0	0	1
RightShoulder	0	0	0	0	-0	180	1
RightArm	0	0	0	0	-0	180	1
RightForeArm	0	0	0	0	-0	180	1
RightHand	0	0	0	0	-0	180	1
LeftUpLeg	0	0	0	0	-0	-90	1
LeftLeg	0	0	0	0	-0	-90	1
LeftFoot	0	0	0	66.57150701	-66.57150701	-90	1
LeftToeBase	0	0	0	0	-90	0	1
RightUpLeg	0	0	0	0	-0	-90	1
RightLeg	0	0	0	0	-0	-90	1
RightFoot	0	0	0	66.57150701	-66.57150701	-90	1
RightToeBase	0	0	0	0	-90	0	1
[reference]
56	0	0	0	0	-0	0	1.0
57	0	0	0	0	-0	0	1.0
58	0	0	0	0	-0	0	1.0
59	0	0	0	0	-0	0	1.0
60	0	0	0	0	-0	0	1.0
61	0	0	0	0	-0	0	1.0
62	0	0	0	0	-0	0	1.0
[Hips]
56	4.160153866	7.869179249	5.593093872	-1.974315763	-146.750885	5.602948666	1.0
57	4.222071648	8.047362328	5.695057869	-4.077271461	-144.9246521	6.01333952	1.0
58	4.238742828	8.285524368	5.784977913	-1.296172142	-144.1685638	3.214691162	1.0
59	4.254308224	8.534061432	5.842563629	-1.488763332	-142.8779602	1.633229613	1.0
60	4.269447803	8.688066483	5.91813612	-2.177171946	-142.1289673	0.6273335814	1.0
61	4.284842491	8.684978485	6.023898602	-2.986175537	-141.9839935	0.0188293457	1.0
62	4.301172256	8.641656876	6.153704643	-3.893083096	-142.7920837	1.186039686	1.0
[Spine]
56	0	0.7478299737	0	-4.537103176	1.008058429	-85.15116119	1.0
57	0	0.7478299737	0	-4.292308807	0.5809821486	-84.55405426	1.0
58	0	0.7478299737	0	-6.150034904	1.29983139	-87.48796082	1.0
59	0	0.7478299737	0	-5.777463436	1.094687104	-88.04916382	1.0
60	0	0.7478299737	0	-5.439857483	1.722916842	-88.17784882	1.0
61	0	0.7478299737	0	-4.659438133	2.311891556	-87.89996338	1.0
62	0	0.7478299737	0	-4.800684452	3.145024538	-87.12780762	1.0
[Spine1]
56	0	2.049309969	0	10.20662212	0.4612038434	-2.222912312	1.0
57	0	2.049309969	0	9.742202759	0.2782000899	-1.822397351	1.0
58	0	2.049309969	0	8.002943039	0.3939300776	-0.68946141	1.0
59	0	2.049309969	0	6.375105381	0.4478828013	-1.47373867	1.0
60	0	2.049309969	0	4.940262318	0.6341124177	-1.659698129	1.0
61	0	2.049309969	0	2.859754086	0.7913244367	-2.03387475	1.0
62	0	2.049309969	0	2.831247807	1.069474697	-1.730279207	1.0
[Neck]
56	0	2.231709957	0	-1.455404282	18.20978165	-84.17274475	1.0
57	0	2.231709957	0	1.353126645	17.75136375	-83.94532776	1.0
58	0	2.231709957	0	1.309750319	16.94232941	-84.04810333	1.0
59	0	2.231709957	0	1.713029623	15.70297813	-83.2688446	1.0
60	0	2.231709957	0	3.167526484	14.17068291	-83.51089478	1.0
61	0	2.231709957	0	6.100152016	14.36848736	-85.05487061	1.0
62	0	2.231709957	0	5.386477947	14.20005798	-85.49615479	1.0
[Head]
56	0	1.413589954	0.1823999882	-14.91609955	11.15747643	-101.3906784	1.0
57	0	1.413589954	0.1823999882	-14.91328335	10.8179245	-101.5007935	1.0
58	0	1.413589954	0.1823999882	-11.21460152	10.41135788	-100.3413239	1.0
59	0	1.413589954	0.1823999882	-8.102479935	9.560335159	-99.93239594	1.0
60	0	1.413589954	0.1823999882	-6.751634121	8.227158546	-100.2536774	1.0
61	0	1.413589954	0.1823999882	-10.47573757	8.006856918	-100.7932587	1.0
62	0	1.413589954	0.1823999882	-10.23410511	7.809527874	-101.2454147	1.0
[LeftShoulder]
56	0.3649300039	1.825889945	-0.04271000251	-12.48479939	-6.515856266	3.515221596	1.0
57	0.3649300039	1.825889945	-0.04271000251	-12.59755707	-6.985980988	4.86509943	1.0
58	0.3649300039	1.825889945	-0.04271000251	-9.982463837	-8.343014717	6.132459641	1.0
59	0.3649300039	1.825889945	-0.04271000251	-7.651798725	-9.338160515	8.515891075	1.0
60	0.3649300039	1.825889945	-0.04271000251	-5.017683506	-10.26353455	9.294714928	1.0
61	0.3649300039	1.825889945	-0.04271000251	-4.795474529	-10.89147854	10.12759113	1.0
62	0.3649300039	1.825889945	-0.04271000251	-5.186127663	-10.45226097	12.38816643	1.0
[LeftArm]
56	1.24003005	0	0	37.33570099	2.314854145	-80.84910583	1.0
57	1.24003005	0	0	32.25601196	6.544825554	-77.50461578	1.0
58	1.24003005	0	0	28.5167942	10.15878773	-73.73925018	1.0
59	1.24003005	0	0	25.09270477	15.66649342	-70.33966064	1.0
60	1.24003005	0	0	20.51828575	21.10250282	-65.33758545	1.0
61	1.24003005	0	0	16.75276184	28.13122368	-58.6288147	1.0
62	1.24003005	0	0	13.94369507	31.91945457	-52.55758667	1.0
[LeftForeArm]
56	2.847419977	0	0	-4.425789833	-20.49952888	-1.16482842	1.0
57	2.847419977	0	0	-0.05139397085	-10.81867886	-9.185921669	1.0
58	2.847419977	0	0	5.711035728	-5.209997177	-14.19874382	1.0
59	2.847419977	0	0	7.960576057	-4.048077583	-18.6651783	1.0
60	2.847419977	0	0	11.17690754	-4.052610874	-23.44724464	1.0
61	2.847419977	0	0	16.39133835	-3.3796525	-30.45742798	1.0
62	2.847419977	0	0	20.4323864	-1.417363286	-38.11592484	1.0
[LeftHand]
56	2.258270025	0	0	-5.006811142	-2.469703674	17.09899902	1.0
57	2.258270025	0	0	-0.9954055548	-1.172000647	7.105212688	1.0
58	2.258270025	0	0	4.875914574	2.836895227	-7.483270645	1.0
59	2.258270025	0	0	6.86231184	5.351082802	-9.276174545	1.0
60	2.258270025	0	0	10.15442276	4.321718216	-4.775906086	1.0
61	2.258270025	0	0	15.45101929	2.008674622	-1.107359052	1.0
62	2.258270025	0	0	19.9214077	1.40409112	-1.709281325	1.0
[RightShoulder]
56	-0.3646599948	1.825889945	-0.04271000251	-10.40355206	9.540269852	176.0353546	1.0
57	-0.3646599948	1.825889945	-0.04271000251	-10.11919212	9.22864151	176.1611176	1.0
58	-0.3646599948	1.825889945	-0.04271000251	-9.494232178	8.367588997	175.9323883	1.0
59	-0.3646599948	1.825889945	-0.04271000251	-6.671454906	7.631866455	176.68573	1.0
60	-0.3646599948	1.825889945	-0.04271000251	-6.434800148	6.940681934	176.3768463	1.0
61	-0.3646599948	1.825889945	-0.04271000251	-5.444044113	5.63889122	175.6189575	1.0
62	-0.3646599948	1.825889945	-0.04271000251	-6.940997124	5.890417576	175.3497772	1.0
[RightArm]
56	-1.24003005	0	0	52.67001343	4.462494373	-100.41082	1.0
57	-1.24003005	0	0	59.80097198	6.094922543	-99.02113342	1.0
58	-1.24003005	0	0	65.56530762	8.24554348	-98.92111969	1.0
59	-1.24003005	0	0	68.90522766	13.0156908	-99.69381714	1.0
60	-1.24003005	0	0	72.71373749	16.08720589	-99.81266785	1.0
61	-1.24003005	0	0	75.91426849	21.54603004	-99.66831207	1.0
62	-1.24003005	0	0	74.52770996	25.02366638	-101.0721512	1.0
[RightForeArm]
56	-2.847419977	0	0	4.962816238	34.32762909	179.4993896	1.0
57	-2.847419977	0	0	3.141731501	43.72146988	176.3473053	1.0
58	-2.847419977	0	0	0.7036195397	56.74372864	171.4903564	1.0
59	-2.847419977	0	0	-6.460370064	70.72703552	162.3606873	1.0
60	-2.847419977	0	0	-42.98165131	79.14756012	122.4228439	1.0
61	-2.847419977	0	0	-88.70981598	78.01828766	73.2790451	1.0
62	-2.847419977	0	0	-113.3543777	74.31008911	46.80181885	1.0
[RightHand]
56	-2.258270025	0	0	3.783872604	14.35104942	169.3452148	1.0
57	-2.258270025	0	0	3.233251572	15.56765175	170.0033722	1.0
58	-2.258270025	0	0	4.142578125	17.2586937	172.2731323	1.0
59	-2.258270025	0	0	4.888179302	16.9070549	172.9086609	1.0
60	-2.258270025	0	0	5.167216301	16.21463585	172.9155273	1.0
61	-2.258270025	0	0	5.236905575	15.64756966	173.1562195	1.0
62	-2.258270025	0	0	6.20094347	14.73469639	173.368515	1.0
[LeftUpLeg]
56	0.9119900465	0	0	-47.47164536	2.685585022	99.85335541	1.0
57	0.9119900465	0	0	-42.21586227	1.218806267	99.61889648	1.0
58	0.9119900465	0	0	-38.17696762	1.092230678	95.75121307	1.0
59	0.9119900465	0	0	-28.98532486	-2.028227329	94.67991638	1.0
60	0.9119900465	0	0	-19.55340195	-5.10447979	93.36191559	1.0
61	0.9119900465	0	0	-10.36445427	-7.764370918	91.97595215	1.0
62	0.9119900465	0	0	-2.488790274	-5.976764679	91.94652557	1.0
[LeftLeg]
56	0	-4.371409893	0	60.04054642	-8.916417122	58.35653687	1.0
57	0	-4.371409893	0	60.76128769	-9.919739723	58.39489746	1.0
58	0	-4.371409893	0	60.25489044	-5.814522266	68.66146851	1.0
59	0	-4.371409893	0	59.36993027	-1.563216448	75.66690826	1.0
60	0	-4.371409893	0	58.16416168	2.397897482	83.37187958	1.0
61	0	-4.371409893	0	56.02621078	4.541270733	86.80423737	1.0
62	0	-4.371409893	0	52.13005066	1.777243614	88.12155914	1.0
[LeftFoot]
56	0	-3.918009996	0	143.1268311	67.09085083	187.3887482	1.0
57	0	-3.918009996	0	139.8869476	66.37114716	188.9843597	1.0
58	0	-3.918009996	0	130.1749878	70.47711182	179.2189178	1.0
59	0	-3.918009996	0	125.6631165	72.24872589	174.3218842	1.0
60	0	-3.918009996	0	116.8956299	75.81156921	163.1455994	1.0
61	0	-3.918009996	0	102.0032196	73.71874237	145.9699707	1.0
62	0	-3.918009996	0	87.8113327	72.10593414	132.2800903	1.0
[LeftToeBase]
56	0	-0.5927900076	1.367989898	0	0	0	1.0
57	0	-0.5927900076	1.367989898	0	0	0	1.0
58	0	-0.5927900076	1.367989898	0	0	0	1.0
59	0	-0.5927900076	1.367989898	0	0	0	1.0
60	0	-0.5927900076	1.367989898	0	0	0	1.0
61	0	-0.5927900076	1.367989898	0	0	0	1.0
62	0	-0.5927900076	1.367989898	0	0	0	1.0
[RightUpLeg]
56	-0.9119900465	0	0	-13.29356384	-21.74451065	105.7570801	1.0
57	-0.9119900465	0	0	-7.645401001	-23.26937485	103.8495789	1.0
58	-0.9119900465	0	0	-5.21001482	-20.92098618	100.292511	1.0
59	-0.9119900465	0	0	2.959517002	-19.81434059	96.26643372	1.0
60	-0.9119900465	0	0	9.614875793	-18.98511124	93.07505798	1.0
61	-0.9119900465	0	0	12.93581772	-16.4331398	90.71115112	1.0
62	-0.9119900465	0	0	12.66400337	-15.34708118	90.89476013	1.0
[RightLeg]
56	0	-4.371409893	0	41.82325745	1.819831014	73.63598633	1.0
57	0	-4.371409893	0	33.70671844	-1.09928	76.20219421	1.0
58	0	-4.371409893	0	24.02619171	-4.442827225	80.09049988	1.0
59	0	-4.371409893	0	10.98316002	-7.676638126	85.89567566	1.0
60	0	-4.371409893	0	-0.1146178246	-9.330353737	91.10469818	1.0
61	0	-4.371409893	0	-4.704139233	-9.766988754	94.38244629	1.0
62	0	-4.371409893	0	-5.137351513	-8.556215286	95.94908142	1.0
[RightFoot]
56	0	-3.918009996	0	19.0840435	67.61061859	92.9524231	1.0
57	0	-3.918009996	0	18.09696007	70.28025818	87.08955383	1.0
58	0	-3.918009996	0	22.18263245	71.36903381	86.49572754	1.0
59	0	-3.918009996	0	29.14192581	73.40546417	83.58621216	1.0
60	0	-3.918009996	0	42.09700394	76.18358612	86.69270325	1.0
61	0	-3.918009996	0	46.87300491	77.15570831	88.03705597	1.0
62	0	-3.918009996	0	34.54234314	77.82068634	77.77040863	1.0
[RightToeBase]
56	0	-0.5927900076	1.367989898	0	0	0	1.0
57	0	-0.5927900076	1.367989898	0	0	0	1.0
58	0	-0.5927900076	1.367989898	0	0	0	1.0
59	0	-0.5927900076	1.367989898	0	0	0	1.0
60	0	-0.5927900076	1.367989898	0	0	0	1.0
61	0	-0.5927900076	1.367989898	0	0	0	1.0
62	0	-0.5927900076	1.367989898	0	0	0	1.0
[EndOfFile]
